<?xml version="1.0" encoding="utf-8"?>
<!-- Generator: Adobe Illustrator 24.0.2, SVG Export Plug-In . SVG Version: 6.00 Build 0)  -->
<svg version="1.1" id="Capa_4" xmlns="http://www.w3.org/2000/svg" xmlns:xlink="http://www.w3.org/1999/xlink" x="0px" y="0px"
	 viewBox="0 0 313.05 343.25" style="enable-background:new 0 0 313.05 343.25;" xml:space="preserve">
<style type="text/css">
	.st0{fill:#384A6D;}
	.st1{clip-path:url(#SVGID_2_);fill:#FFFFFF;}
	.st2{clip-path:url(#SVGID_4_);fill:#90B0AF;}
	.st3{clip-path:url(#SVGID_6_);fill:#30373F;}
	.st4{fill:#FFFFFF;}
</style>
<rect x="0.5" class="st0" width="312.56" height="343.25"/>
<g>
	<g>
		<defs>
			<polygon id="SVGID_1_" points="72.6,37.11 69.82,73.31 317.62,175.28 328.85,-45.34 63.69,-24.73 			"/>
		</defs>
		<clipPath id="SVGID_2_">
			<use xlink:href="#SVGID_1_"  style="overflow:visible;"/>
		</clipPath>
		<path class="st1" d="M40.98,116.71l150.42,54.02c44.84,16.1,93.86-7.89,109.49-53.6c15.63-45.7-8.05-95.81-52.89-111.91
			c-23.85-8.56-49.17-5.62-69.73,5.73L38.69,88.81C26.52,95.6,27.87,112,40.98,116.71z M128.79,95.47l68.91-34.71
			c8.38-4.18,18.66-5.34,28.3-2.33c18.12,5.66,27.54,23.68,21.04,40.26c-6.5,16.58-26.47,25.43-44.59,19.77L128.79,95.47z"/>
	</g>
	<g>
		<defs>
			<polygon id="SVGID_3_" points="-9.57,239.59 113.27,198.65 326.07,93.93 56.62,-4.12 -56.08,129.61 			"/>
		</defs>
		<clipPath id="SVGID_4_">
			<use xlink:href="#SVGID_3_"  style="overflow:visible;"/>
		</clipPath>
		<path class="st2" d="M267.01,143.92L127.43,66.06c-20.56-11.36-45.88-14.3-69.73-5.73c-44.84,16.1-68.52,66.21-52.89,111.91
			c15.63,45.7,64.65,69.7,109.49,53.6l150.42-54.02C277.83,167.11,279.18,150.71,267.01,143.92z M103.26,173.57
			c-18.12,5.66-38.08-3.19-44.59-19.77c-6.5-16.58,2.92-34.6,21.04-40.26c9.64-3.01,19.92-1.85,28.3,2.33l68.91,34.71L103.26,173.57
			z"/>
	</g>
	<g>
		<defs>
			<polygon id="SVGID_5_" points="46.98,203.67 236.38,56.05 392.36,188.63 225.24,343.25 176.92,239.59 			"/>
		</defs>
		<clipPath id="SVGID_6_">
			<use xlink:href="#SVGID_5_"  style="overflow:visible;"/>
		</clipPath>
		<path class="st3" d="M49.9,224.32l150.42,54.02c44.84,16.1,93.86-7.89,109.49-53.6c15.63-45.7-8.05-95.81-52.89-111.91
			c-23.85-8.56-49.17-5.62-69.73,5.73L47.6,196.43C35.43,203.22,36.78,219.61,49.9,224.32z M137.7,203.09l68.91-34.71
			c8.38-4.18,18.66-5.34,28.3-2.33c18.12,5.66,27.54,23.68,21.04,40.26c-6.5,16.58-26.47,25.43-44.59,19.77L137.7,203.09z"/>
	</g>
	<path class="st4" d="M267.01,256.33l-139.58-77.86c-20.56-11.36-45.88-14.3-69.73-5.73c-44.84,16.1-68.52,66.21-52.89,111.91
		c15.63,45.7,64.65,69.7,109.49,53.6l150.42-54.02C277.83,279.51,279.18,263.11,267.01,256.33z M103.26,285.98
		c-18.12,5.66-38.08-3.19-44.59-19.77c-6.5-16.58,2.92-34.6,21.04-40.26c9.64-3.01,19.92-1.85,28.3,2.33l68.91,34.71L103.26,285.98z
		"/>
</g>
</svg>
