<?xml version="1.0" encoding="utf-8"?>
<!-- Generator: Adobe Illustrator 24.0.2, SVG Export Plug-In . SVG Version: 6.00 Build 0)  -->
<svg version="1.1" id="Capa_1" xmlns="http://www.w3.org/2000/svg" xmlns:xlink="http://www.w3.org/1999/xlink" x="0px" y="0px"
	 viewBox="0 0 40 40" style="enable-background:new 0 0 40 40;" xml:space="preserve">
<style type="text/css">
	.st0{fill:#394C6B;}
	.st1{fill:none;stroke:#394C6B;stroke-width:2;stroke-linecap:round;stroke-miterlimit:10;}
	.st2{fill:none;stroke:#BD1C37;stroke-linecap:round;stroke-linejoin:round;stroke-miterlimit:10;}
</style>
<g id="Capa_2_1_">
	<rect x="13.6" y="13.6" class="st0" width="4.7" height="4.7"/>
	<rect x="21.7" y="13.6" class="st0" width="4.7" height="4.7"/>
	<rect x="29.8" y="13.6" class="st0" width="4.7" height="4.7"/>
	<rect x="13.6" y="20.6" class="st0" width="4.7" height="4.7"/>
	<rect x="5.7" y="20.6" class="st0" width="4.7" height="4.7"/>
	<rect x="21.7" y="20.6" class="st0" width="4.7" height="4.7"/>
	<rect x="29.8" y="20.6" class="st0" width="4.7" height="4.7"/>
	<rect x="13.6" y="27.7" class="st0" width="4.7" height="4.7"/>
	<rect x="21.7" y="27.7" class="st0" width="4.7" height="4.7"/>
	<rect x="5.7" y="27.7" class="st0" width="4.7" height="4.7"/>
	<path class="st0" d="M0,10.7c0,0-0.2-4.7,3.1-4.7s34.8,0,34.8,0S40,6.3,40,10.7H0z"/>
</g>
<g id="Capa_4">
	<line class="st1" x1="8" y1="4.8" x2="8" y2="9.6"/>
	<line class="st1" x1="20.5" y1="4.8" x2="20.5" y2="9.6"/>
	<line class="st1" x1="33" y1="4.8" x2="33" y2="9.6"/>
</g>
<g id="Capa_3">
	<polyline class="st2" points="22.3,29.4 24.5,31.6 29.1,27.1 	"/>
</g>
</svg>
