<?xml version="1.0" encoding="utf-8"?>
<!-- Generator: Adobe Illustrator 24.0.2, SVG Export Plug-In . SVG Version: 6.00 Build 0)  -->
<svg version="1.1" id="Capa_1" xmlns="http://www.w3.org/2000/svg" xmlns:xlink="http://www.w3.org/1999/xlink" x="0px" y="0px"
	 viewBox="0 0 30 30" style="enable-background:new 0 0 30 30;" xml:space="preserve">
<style type="text/css">
	.st0{display:none;}
	.st1{fill:#394C6B;}
	.st2{fill:none;stroke:#394C6B;stroke-miterlimit:10;}
</style>
<g id="Capa_1_1_" class="st0">
	<image style="display:inline;overflow:visible;enable-background:new    ;" width="30" height="30" xlink:href="85E95FAF.png" >
	</image>
</g>
<g id="Capa_2_1_">
	<path class="st1" d="M23.9,7.8c-0.8-0.8-2-0.8-2.8,0L10.8,18l-2.3-2.2C7.7,15,6.5,15,5.7,15.8S5,17.9,5.8,18.7l3.7,3.5
		c0.4,0.4,0.9,0.5,1.4,0.5c0.5,0,1-0.2,1.4-0.6l11.6-11.5C24.7,9.9,24.7,8.6,23.9,7.8z M23.2,9.9L11.6,21.5
		c-0.2,0.2-0.4,0.3-0.7,0.3s-0.5-0.1-0.7-0.3L6.5,18c-0.4-0.4-0.4-1,0-1.4s1-0.4,1.4,0l3,2.9L21.8,8.5c0.4-0.4,1-0.4,1.4,0
		C23.6,8.9,23.6,9.6,23.2,9.9z"/>
</g>
<g id="Capa_3">
	<circle class="st2" cx="15" cy="15" r="14.3"/>
</g>
</svg>
