<?xml version="1.0" encoding="utf-8"?>
<!-- Generator: Adobe Illustrator 24.0.2, SVG Export Plug-In . SVG Version: 6.00 Build 0)  -->
<svg version="1.1" id="Capa_1" xmlns="http://www.w3.org/2000/svg" xmlns:xlink="http://www.w3.org/1999/xlink" x="0px" y="0px"
	 viewBox="0 0 160 50" style="enable-background:new 0 0 160 50;" xml:space="preserve">
<style type="text/css">
	.st0{fill:#394C6B;}
	.st1{enable-background:new    ;}
	.st2{fill:#FFFFFF;}
</style>
<path class="st0" d="M155.8,50H4.2C1.9,50,0,48.1,0,45.8V4.2C0,1.9,1.9,0,4.2,0h151.6c2.3,0,4.2,1.9,4.2,4.2v41.6
	C160,48.1,158.1,50,155.8,50z"/>
<g class="st1">
	<path class="st2" d="M54.8,30.6V16.8h1.7v13.8H54.8z"/>
	<path class="st2" d="M68.5,24.6v6h-1.7v-5.8c0-0.5,0-1,0-1.5c-0.1-1.2-0.8-2.2-2.4-2.2c-1.7,0-3.1,1.2-3.1,4.9v4.7h-1.7V20h1.7v1.8
		l0.7-1.2c0.9-0.7,1.7-0.9,2.8-0.9c2.3,0,3.6,1.2,3.8,3.1C68.5,23.4,68.5,23.8,68.5,24.6z"/>
	<path class="st2" d="M73.4,17.6c0,0.6-0.5,1.1-1.1,1.1s-1.1-0.5-1.1-1.1s0.5-1.1,1.1-1.1S73.4,17,73.4,17.6z M71.4,30.6V20h1.7
		v10.6H71.4z"/>
	<path class="st2" d="M84.7,23.6h-1.8c-0.4-1.7-1.3-2.5-2.7-2.5c-1.7,0-3.1,1.3-3.1,4.2c0,3.1,1.4,4.4,2.9,4.4
		c1.4,0,2.4-0.8,2.7-2.3h1.8c-0.5,2.5-2.3,3.7-4.6,3.7c-2.7,0-4.7-1.7-4.7-5.6c0-3.6,2.3-5.6,5-5.6C82.8,19.7,84.4,21.2,84.7,23.6z"
		/>
	<path class="st2" d="M88.7,17.6c0,0.6-0.5,1.1-1.1,1.1s-1.1-0.5-1.1-1.1s0.5-1.1,1.1-1.1S88.7,17,88.7,17.6z M86.7,30.6V20h1.7
		v10.6H86.7z"/>
	<path class="st2" d="M97.4,29.1l-0.6,1.1c-0.7,0.5-1.6,0.7-2.7,0.7c-1.9,0-3.4-1.1-3.4-3c0-2.4,1.8-3.6,6-3.6h0.7v-0.3
		c0-0.5,0-0.9,0-1.3c-0.1-1-0.6-1.6-2.1-1.6c-1.4,0-2.2,0.8-2.3,2.2h-1.8c0.2-2.3,1.7-3.6,4.1-3.6c2.5,0,3.6,1.1,3.8,2.8
		c0,0.4,0.1,0.9,0.1,1.4v4c0,0.8,0,1.5,0.2,2.7h-1.7L97.4,29.1z M97.4,26.6v-1.1c-2.9-0.2-4.8,0.4-4.8,2.2c0,1.3,0.8,1.8,2.1,1.8
		C96.3,29.6,97.4,28.5,97.4,26.6z"/>
	<path class="st2" d="M107,19.9v1.3c-1.8-0.1-3.2,0.9-3.2,3.4v6h-1.7V20h1.7v1.7l1-1.4c0.4-0.3,1-0.5,1.5-0.5
		C106.6,19.8,106.8,19.8,107,19.9z"/>
</g>
</svg>
