<?xml version="1.0" encoding="utf-8"?>
<!-- Generator: Adobe Illustrator 24.0.2, SVG Export Plug-In . SVG Version: 6.00 Build 0)  -->
<svg version="1.1" id="Capa_1" xmlns="http://www.w3.org/2000/svg" xmlns:xlink="http://www.w3.org/1999/xlink" x="0px" y="0px"
	 viewBox="0 0 132 58" style="enable-background:new 0 0 132 58;" xml:space="preserve">
<style type="text/css">
	.st0{fill:#394C6B;}
	.st1{enable-background:new    ;}
	.st2{fill:#FFFFFF;}
</style>
<path class="st0" d="M129.1,58H2.9C1.3,58,0,56.7,0,55.1V4c0-2.2,1.8-4,4-4h125.1c1.6,0,2.9,1.3,2.9,2.9v52.2
	C132,56.7,130.7,58,129.1,58z"/>
<g class="st1">
	<path class="st2" d="M33.6,25.8l0,0.2h-1.7l0-0.2c-0.4-2-1.6-3.3-3.9-3.3c-2.8,0-4.6,2.5-4.6,5.8c0,3.4,1.7,5.8,4.4,5.8
		c2.3,0,3.5-1.3,3.9-3.3l0-0.2h1.7l0,0.2c-0.3,2.5-2.1,4.7-5.8,4.7c-4,0-6.3-3.1-6.3-7.1c0-4.2,2.6-7.2,6.5-7.2
		C31.5,21.1,33.3,23.1,33.6,25.8z"/>
	<path class="st2" d="M45.6,29.9c0,3-1.7,5.6-5.3,5.6s-5.3-2.6-5.3-5.6c0-3,1.7-5.6,5.3-5.6S45.6,26.9,45.6,29.9z M43.7,29.9
		c0-2.5-1.2-4.3-3.4-4.3S37,27.4,37,29.9c0,2.5,1.2,4.3,3.4,4.3S43.7,32.4,43.7,29.9z"/>
	<path class="st2" d="M56.7,29.2v6h-1.7v-5.8c0-0.5,0-1,0-1.5c-0.1-1.2-0.8-2.2-2.4-2.2c-1.7,0-3.1,1.2-3.1,4.9v4.7h-1.7V24.6h1.7
		v1.8l0.7-1.2c0.9-0.7,1.7-0.9,2.8-0.9c2.3,0,3.6,1.2,3.8,3.1C56.7,28,56.7,28.4,56.7,29.2z"/>
	<path class="st2" d="M67,35.2h-1.7V26h-3.9v9.2h-1.7V26h-1.1v-1.3h1.1v-0.3c0-0.4,0-0.9,0.1-1.3c0.2-1.9,1.5-3,4.3-3
		c0.4,0,0.9,0,1.2,0.1v1.4c-2.7-0.2-3.6,0.3-3.8,1.5c0,0.3-0.1,0.8-0.1,1.1v0.4H67V35.2z"/>
	<path class="st2" d="M74.9,24.5v1.3c-1.8-0.1-3.2,0.9-3.2,3.4v6H70V24.6h1.7v1.7l1-1.4c0.4-0.3,1-0.5,1.5-0.5
		C74.4,24.4,74.7,24.4,74.9,24.5z"/>
	<path class="st2" d="M90.8,28.7v6.5h-1.7v-5.7c0-0.9,0-1.5-0.1-2.1c-0.2-1.2-0.9-1.8-2.1-1.8c-1.3,0-2.3,1.1-2.3,4.3v5.2h-1.7v-5.7
		c0-0.9,0-1.5-0.1-2.1c-0.2-1.2-0.9-1.8-2.1-1.8c-1.3,0-2.3,1.1-2.3,4.3v5.2h-1.7V24.6h1.7v1.5l0.7-1.2c0.5-0.4,1.3-0.6,2.2-0.6
		c1.6,0,2.7,0.8,3.1,2l0.9-1.4c0.5-0.4,1.3-0.6,2.2-0.6c1.9,0,3,1.1,3.2,2.6C90.8,27.4,90.8,27.9,90.8,28.7z"/>
	<path class="st2" d="M99.6,33.7L99,34.8c-0.7,0.5-1.6,0.7-2.7,0.7c-1.9,0-3.4-1.1-3.4-3c0-2.4,1.8-3.6,6-3.6h0.7v-0.3
		c0-0.5,0-0.9,0-1.3c-0.1-1-0.6-1.6-2.1-1.6c-1.4,0-2.2,0.8-2.3,2.2h-1.8c0.2-2.3,1.7-3.6,4.1-3.6c2.5,0,3.6,1.1,3.8,2.8
		c0,0.4,0.1,0.9,0.1,1.4v4c0,0.8,0,1.5,0.2,2.7h-1.7L99.6,33.7z M99.6,31.2v-1.1c-2.9-0.2-4.8,0.4-4.8,2.2c0,1.3,0.8,1.8,2.1,1.8
		C98.5,34.2,99.6,33.1,99.6,31.2z"/>
	<path class="st2" d="M109.2,24.5v1.3c-1.8-0.1-3.2,0.9-3.2,3.4v6h-1.7V24.6h1.7v1.7l1-1.4c0.4-0.3,1-0.5,1.5-0.5
		C108.8,24.4,109,24.4,109.2,24.5z"/>
</g>
</svg>
