<?xml version="1.0" encoding="utf-8"?>
<!-- Generator: Adobe Illustrator 24.0.2, SVG Export Plug-In . SVG Version: 6.00 Build 0)  -->
<svg version="1.1" id="Capa_1" xmlns="http://www.w3.org/2000/svg" xmlns:xlink="http://www.w3.org/1999/xlink" x="0px" y="0px"
	 viewBox="0 0 132 58" style="enable-background:new 0 0 132 58;" xml:space="preserve">
<style type="text/css">
	.st0{fill:#394C6B;}
	.st1{enable-background:new    ;}
	.st2{fill:#FFFFFF;}
</style>
<path class="st0" d="M127.9,58H4.1C1.8,58,0,56.2,0,53.9V4.1C0,1.8,1.8,0,4.1,0h123.8c2.3,0,4.1,1.8,4.1,4.1v49.8
	C132,56.2,130.2,58,127.9,58z"/>
<g class="st1">
	<path class="st2" d="M32.4,30.1l-1.7,5.1h-1.9L34,20.7h2.4l5,14.5h-2l-1.7-5.1H32.4z M37.3,28.6l-2.1-6.5l-2.2,6.5H37.3z"/>
	<path class="st2" d="M52.2,27.8h-1.9c-0.4-1.8-1.4-2.6-2.9-2.6c-1.7,0-3.2,1.4-3.2,4.4c0,3.2,1.4,4.6,3.1,4.6
		c1.5,0,2.5-0.8,2.9-2.5h1.9c-0.5,2.6-2.4,3.8-4.9,3.8c-2.8,0-5-1.8-5-5.8c0-3.8,2.4-5.9,5.2-5.9C50.1,23.8,51.8,25.4,52.2,27.8z"/>
	<path class="st2" d="M63.3,30.2h-8.1c0.2,2.9,1.6,3.9,3.2,3.9c1.4,0,2.6-0.9,2.9-2.5h1.9c-0.4,2.7-2.6,3.9-4.9,3.9
		c-2.9,0-5.1-1.9-5.1-5.8c0-3.6,2.2-5.9,5.3-5.9c3.1,0,4.8,2.3,4.8,5.5C63.4,29.5,63.4,29.8,63.3,30.2z M55.3,28.8h6.3
		c-0.2-2.3-1.2-3.6-3-3.6C56.8,25.2,55.5,26.4,55.3,28.8z"/>
	<path class="st2" d="M76.4,29.5c0,4.1-2.6,6-5.4,6c-0.9,0-2.1-0.3-2.7-0.7l-0.7-1.1v5.6h-1.8V24.1h1.8v1.8l0.8-1.2
		c0.6-0.5,1.8-0.9,2.9-0.9C74.6,23.8,76.4,26.2,76.4,29.5z M74.5,29.7c0-2.5-1.1-4.5-3.4-4.5c-1.8,0-3.5,1.2-3.5,4.4v0.6
		c0,2.9,1.8,4,3.4,4C72.9,34.1,74.5,32.6,74.5,29.7z"/>
	<path class="st2" d="M80.8,31.9c0,0.4,0,0.6,0,0.9c0.1,1.1,0.5,1.3,1.9,1.1v1.3c-0.5,0.1-1,0.1-1.5,0.1c-1.4,0-2.1-0.6-2.2-2
		c0-0.3,0-0.8,0-1.4v-6.5h-1.5v-1.4H79v-2.6h1.8v2.6h2.1v1.4h-2.1V31.9z"/>
	<path class="st2" d="M91.4,33.6l-0.6,1.2c-0.8,0.5-1.7,0.7-2.8,0.7c-2,0-3.6-1.1-3.6-3.2c0-2.5,1.9-3.8,6.3-3.8h0.7v-0.3
		c0-0.5,0-0.9,0-1.3c-0.1-1-0.7-1.7-2.2-1.7c-1.5,0-2.3,0.8-2.4,2.4h-1.9c0.2-2.4,1.8-3.7,4.3-3.7c2.6,0,3.8,1.1,3.9,2.9
		c0,0.4,0.1,1,0.1,1.5v4.2c0,0.8,0,1.6,0.2,2.8h-1.8L91.4,33.6z M91.4,31v-1.1c-3.1-0.2-5,0.4-5,2.3c0,1.3,0.9,1.9,2.2,1.9
		C90.3,34.1,91.4,33,91.4,31z"/>
	<path class="st2" d="M101.5,24v1.4c-1.9-0.1-3.3,1-3.3,3.5v6.3h-1.8V24.1h1.8v1.7l1-1.5c0.5-0.3,1-0.5,1.6-0.5
		C101,23.8,101.3,23.9,101.5,24z"/>
</g>
</svg>
