<?xml version="1.0" encoding="utf-8"?>
<!-- Generator: Adobe Illustrator 24.0.2, SVG Export Plug-In . SVG Version: 6.00 Build 0)  -->
<svg version="1.1" id="Capa_1" xmlns="http://www.w3.org/2000/svg" xmlns:xlink="http://www.w3.org/1999/xlink" x="0px" y="0px"
	 viewBox="0 0 123 58" style="enable-background:new 0 0 123 58;" xml:space="preserve">
<style type="text/css">
	.st0{enable-background:new    ;}
	.st1{fill:#394C6B;}
</style>
<g class="st0">
	<path class="st1" d="M31,35.2h-1.9c-0.4-0.9-0.6-1.8-0.7-3.5c-0.2-1.4-0.7-2.4-2.1-2.5c-0.3,0-0.7,0-1,0h-2.6v5.9H21V21.4h4.5
		c0.7,0,1.2,0,1.8,0.1c2,0.3,3.4,1.4,3.4,3.7c0,1.8-1.2,2.9-2.5,3.3c1.1,0.5,1.7,1.8,1.8,3.2C30.2,33.4,30.4,34.5,31,35.2z
		 M25.3,27.9c0.6,0,1,0,1.3,0c1.3-0.1,2.2-0.9,2.2-2.5c0-1.5-0.7-2.2-2-2.4c-0.4-0.1-0.8-0.1-1.4-0.1h-2.8v5.1H25.3z"/>
	<path class="st1" d="M41.5,30.4h-7.7c0.2,2.8,1.5,3.7,3,3.7c1.4,0,2.5-0.9,2.7-2.4h1.8c-0.4,2.6-2.4,3.7-4.6,3.7
		c-2.8,0-4.8-1.8-4.8-5.5c0-3.4,2.1-5.6,5-5.6c2.9,0,4.5,2.2,4.5,5.3C41.5,29.8,41.5,30,41.5,30.4z M33.8,29.1h6
		c-0.2-2.2-1.1-3.5-2.8-3.5C35.3,25.6,34,26.8,33.8,29.1z"/>
	<path class="st1" d="M52.4,28.2h-1.8c-0.4-1.7-1.3-2.5-2.7-2.5c-1.7,0-3.1,1.3-3.1,4.2c0,3.1,1.4,4.4,2.9,4.4
		c1.4,0,2.4-0.8,2.7-2.3h1.8c-0.5,2.5-2.3,3.7-4.6,3.7c-2.7,0-4.7-1.7-4.7-5.6c0-3.6,2.3-5.6,5-5.6C50.4,24.3,52.1,25.8,52.4,28.2z"
		/>
	<path class="st1" d="M63.3,29.2v6h-1.7v-5.8c0-0.5,0-1,0-1.5c-0.1-1.2-0.8-2.2-2.4-2.2c-1.7,0-3.1,1.2-3.1,4.9v4.7h-1.7V20.4h1.7v6
		l0.7-1.2c0.9-0.7,1.7-0.9,2.8-0.9c2.3,0,3.6,1.2,3.8,3.1C63.3,28,63.3,28.4,63.3,29.2z"/>
	<path class="st1" d="M72.1,33.7l-0.6,1.1c-0.7,0.5-1.6,0.7-2.7,0.7c-1.9,0-3.4-1.1-3.4-3c0-2.4,1.8-3.6,6-3.6h0.7v-0.3
		c0-0.5,0-0.9,0-1.3c-0.1-1-0.6-1.6-2.1-1.6c-1.4,0-2.2,0.8-2.3,2.2h-1.8c0.2-2.3,1.7-3.6,4.1-3.6c2.5,0,3.6,1.1,3.8,2.8
		c0,0.4,0.1,0.9,0.1,1.4v4c0,0.8,0,1.5,0.2,2.7h-1.7L72.1,33.7z M72.1,31.2v-1.1c-2.9-0.2-4.8,0.4-4.8,2.2c0,1.3,0.8,1.8,2.1,1.8
		C71.1,34.2,72.1,33.1,72.1,31.2z"/>
	<path class="st1" d="M84,35.2h-8.3v-1.3l6.2-7.8h-5.7v-1.4h7.7v1.4l-6.1,7.8H84V35.2z"/>
	<path class="st1" d="M92,33.7l-0.6,1.1c-0.7,0.5-1.6,0.7-2.7,0.7c-1.9,0-3.4-1.1-3.4-3c0-2.4,1.8-3.6,6-3.6H92v-0.3
		c0-0.5,0-0.9,0-1.3c-0.1-1-0.6-1.6-2.1-1.6c-1.4,0-2.2,0.8-2.3,2.2h-1.8c0.2-2.3,1.7-3.6,4.1-3.6c2.5,0,3.6,1.1,3.8,2.8
		c0,0.4,0.1,0.9,0.1,1.4v4c0,0.8,0,1.5,0.2,2.7h-1.7L92,33.7z M92,31.2v-1.1c-2.9-0.2-4.8,0.4-4.8,2.2c0,1.3,0.8,1.8,2.1,1.8
		C90.9,34.2,92,33.1,92,31.2z"/>
	<path class="st1" d="M101.6,24.5v1.3c-1.8-0.1-3.2,0.9-3.2,3.4v6h-1.7V24.6h1.7v1.7l1-1.4c0.4-0.3,1-0.5,1.5-0.5
		C101.2,24.4,101.4,24.4,101.6,24.5z"/>
</g>
<g>
	<path class="st1" d="M118,1c2.2,0,4,1.8,4,4v48c0,2.2-1.8,4-4,4H5c-2.2,0-4-1.8-4-4V5c0-2.2,1.8-4,4-4H118 M118,0H5
		C2.3,0,0,2.3,0,5v48c0,2.8,2.3,5,5,5h113c2.8,0,5-2.3,5-5V5C123,2.3,120.7,0,118,0L118,0z"/>
</g>
</svg>
